<svg xmlns="http://www.w3.org/2000/svg" width="22.945" height="20.113" viewBox="0 0 22.945 20.113">
  <path id="atten" d="M228,1767a1,1,0,0,1,1,1v1a1,1,0,0,1-2,0v-1A1,1,0,0,1,228,1767Zm0-7a1,1,0,0,1,1,1v4a1,1,0,0,1-2,0v-4A1,1,0,0,1,228,1760Zm-2.572-4.656a3,3,0,0,1,5.145,0l8.467,14.113a3,3,0,0,1-2.572,4.543H219.532a3,3,0,0,1-2.572-4.543Zm3.43,1.029a1,1,0,0,0-1.715,0l-8.468,14.113a1,1,0,0,0,.857,1.514h16.936a1,1,0,0,0,.857-1.514Z" transform="translate(-216.528 -1753.887)" fill="#f70" fill-rule="evenodd"/>
</svg>
