<svg xmlns="http://www.w3.org/2000/svg" xmlns:xlink="http://www.w3.org/1999/xlink" width="178" height="42.657" viewBox="0 0 178 42.657">
  <defs>
    <radialGradient id="radial-gradient" cx="-23.438" cy="-0.498" r="4.513" gradientTransform="translate(-2.434) scale(5.869 1)" gradientUnits="objectBoundingBox">
      <stop offset="0" stop-color="#00a1ed"/>
      <stop offset="0.113" stop-color="#009ae3"/>
      <stop offset="0.3" stop-color="#0088ca"/>
      <stop offset="0.538" stop-color="#006ba1"/>
      <stop offset="0.816" stop-color="#004468"/>
      <stop offset="1" stop-color="#00273f"/>
    </radialGradient>
    <radialGradient id="radial-gradient-2" cx="1.145" cy="-90.703" r="106.166" gradientTransform="matrix(-0.222, 0, 0, 1, -732.552, 0)" gradientUnits="objectBoundingBox">
      <stop offset="0" stop-color="#5bc8f6"/>
      <stop offset="0.22" stop-color="#5bc8f6"/>
      <stop offset="0.262" stop-color="#53beec"/>
      <stop offset="0.332" stop-color="#3fa6d3"/>
      <stop offset="0.42" stop-color="#1f7eaa"/>
      <stop offset="0.495" stop-color="#005883"/>
      <stop offset="0.648" stop-color="#003961"/>
      <stop offset="0.818" stop-color="#0071a0"/>
      <stop offset="1" stop-color="#0071a0"/>
    </radialGradient>
    <radialGradient id="radial-gradient-3" cx="99.073" cy="-3260.338" r="9833.68" gradientTransform="matrix(-0.259, 0, 0, 1, -59335.605, 0)" xlink:href="#radial-gradient"/>
    <radialGradient id="radial-gradient-4" cx="0.485" cy="1.868" r="7.481" gradientTransform="translate(0.027) scale(0.946 1)" xlink:href="#radial-gradient"/>
    <radialGradient id="radial-gradient-5" cx="1.893" cy="0.601" r="5.236" gradientTransform="translate(-0.484) scale(1.969 1)" xlink:href="#radial-gradient"/>
    <radialGradient id="radial-gradient-6" cx="5.307" cy="-0.402" r="4.715" gradientTransform="translate(-2.077) scale(5.155 1)" xlink:href="#radial-gradient"/>
    <radialGradient id="radial-gradient-7" cx="2.847" cy="-1.652" r="5.151" gradientTransform="translate(-0.801) scale(2.603 1)" xlink:href="#radial-gradient"/>
    <radialGradient id="radial-gradient-8" cx="1.051" cy="-3.972" r="7.305" gradientTransform="translate(-0.056) scale(1.113 1)" xlink:href="#radial-gradient"/>
    <radialGradient id="radial-gradient-9" cx="-0.954" cy="-32.475" r="45.712" gradientTransform="translate(0.19) scale(0.621 1)" xlink:href="#radial-gradient"/>
    <radialGradient id="radial-gradient-10" cx="0.212" cy="1.711" r="7.618" gradientTransform="translate(0.126) scale(0.748 1)" xlink:href="#radial-gradient"/>
    <radialGradient id="radial-gradient-11" cx="0.747" cy="0.375" r="5.762" gradientTransform="translate(0.043) scale(0.914 1)" xlink:href="#radial-gradient"/>
    <radialGradient id="radial-gradient-12" cx="0.955" cy="-0.715" r="5.129" gradientTransform="translate(-0.027) scale(1.054 1)" xlink:href="#radial-gradient"/>
    <radialGradient id="radial-gradient-13" cx="0.752" cy="-1.972" r="5.397" gradientTransform="translate(0.082) scale(0.836 1)" xlink:href="#radial-gradient"/>
    <radialGradient id="radial-gradient-14" cx="0.372" cy="-4.18" r="7.3" gradientTransform="translate(0.21) scale(0.579 1)" xlink:href="#radial-gradient"/>
    <radialGradient id="radial-gradient-15" cx="-0.248" cy="-9.591" r="13.307" gradientTransform="translate(0.328) scale(0.343 1)" xlink:href="#radial-gradient"/>
    <radialGradient id="radial-gradient-16" cx="-3.048" cy="-113.36" r="141.551" gradientTransform="translate(0.459) scale(0.082 1)" xlink:href="#radial-gradient"/>
    <radialGradient id="radial-gradient-17" cx="-0.599" cy="1.712" r="7.596" gradientTransform="translate(0.09) scale(0.82 1)" xlink:href="#radial-gradient"/>
    <radialGradient id="radial-gradient-18" cx="-0.196" cy="0.382" r="5.729" gradientTransform="translate(0.127) scale(0.746 1)" xlink:href="#radial-gradient"/>
    <radialGradient id="radial-gradient-19" cx="-0.131" cy="-0.699" r="5.091" gradientTransform="translate(0.147) scale(0.707 1)" xlink:href="#radial-gradient"/>
    <radialGradient id="radial-gradient-20" cx="-0.179" cy="-1.942" r="5.348" gradientTransform="translate(0.191) scale(0.619 1)" xlink:href="#radial-gradient"/>
    <radialGradient id="radial-gradient-21" cx="-0.424" cy="-4.117" r="7.217" gradientTransform="translate(0.251) scale(0.498 1)" xlink:href="#radial-gradient"/>
    <radialGradient id="radial-gradient-22" cx="-1.005" cy="-9.365" r="13.03" gradientTransform="translate(0.321) scale(0.359 1)" xlink:href="#radial-gradient"/>
    <radialGradient id="radial-gradient-23" cx="-2.875" cy="-57.85" r="72.847" gradientTransform="translate(0.44) scale(0.119 1)" xlink:href="#radial-gradient"/>
    <radialGradient id="radial-gradient-24" cx="-1.448" cy="1.878" r="7.473" gradientTransform="translate(0.134) scale(0.732 1)" xlink:href="#radial-gradient"/>
    <radialGradient id="radial-gradient-25" cx="-1.112" cy="0.615" r="5.197" gradientTransform="translate(0.134) scale(0.731 1)" xlink:href="#radial-gradient"/>
    <radialGradient id="radial-gradient-26" cx="-1.077" cy="-0.299" r="4.404" gradientTransform="translate(0.129) scale(0.742 1)" xlink:href="#radial-gradient"/>
    <radialGradient id="radial-gradient-27" cx="-1.231" cy="-1.266" r="4.42" gradientTransform="translate(0.125) scale(0.75 1)" xlink:href="#radial-gradient"/>
    <radialGradient id="radial-gradient-28" cx="-1.559" cy="-2.774" r="5.562" gradientTransform="translate(0.158) scale(0.683 1)" xlink:href="#radial-gradient"/>
    <radialGradient id="radial-gradient-29" cx="-2.194" cy="-5.833" r="8.796" gradientTransform="translate(0.216) scale(0.569 1)" xlink:href="#radial-gradient"/>
    <radialGradient id="radial-gradient-30" cx="-4.156" cy="-21.512" r="28.191" gradientTransform="translate(0.338) scale(0.325 1)" xlink:href="#radial-gradient"/>
    <radialGradient id="radial-gradient-31" cx="-1.866" cy="2.467" r="8.622" gradientTransform="translate(0.213) scale(0.574 1)" xlink:href="#radial-gradient"/>
    <radialGradient id="radial-gradient-32" cx="-2.249" cy="1.005" r="5.374" gradientTransform="translate(0.093) scale(0.815 1)" xlink:href="#radial-gradient"/>
    <radialGradient id="radial-gradient-33" cx="-2.766" cy="0.104" r="4.293" gradientTransform="translate(-0.017) scale(1.033 1)" xlink:href="#radial-gradient"/>
    <radialGradient id="radial-gradient-34" cx="-3.642" cy="-0.756" r="4.094" gradientTransform="translate(-0.143) scale(1.285 1)" xlink:href="#radial-gradient"/>
    <radialGradient id="radial-gradient-35" cx="-3.719" cy="-1.956" r="4.842" gradientTransform="translate(-0.06) scale(1.12 1)" xlink:href="#radial-gradient"/>
    <radialGradient id="radial-gradient-36" cx="-3.397" cy="-4.071" r="6.905" gradientTransform="translate(0.099) scale(0.803 1)" xlink:href="#radial-gradient"/>
    <radialGradient id="radial-gradient-37" cx="-6.304" cy="-17.691" r="24.211" gradientTransform="translate(0.264) scale(0.472 1)" xlink:href="#radial-gradient"/>
    <radialGradient id="radial-gradient-38" cx="-2.326" cy="5.238" r="14.426" gradientTransform="matrix(0.396, -0.108, 0.043, 0.994, -3.09, -0.433)" xlink:href="#radial-gradient"/>
    <radialGradient id="radial-gradient-39" cx="-3.989" cy="2.26" r="6.989" gradientTransform="matrix(0.927, -0.122, 0.114, 0.993, -0.773, -0.678)" xlink:href="#radial-gradient"/>
    <radialGradient id="radial-gradient-40" cx="-7.337" cy="0.819" r="4.842" gradientTransform="matrix(1.91, -0.081, 0.156, 0.997, 6.699, -0.607)" xlink:href="#radial-gradient"/>
    <radialGradient id="radial-gradient-41" cx="-11.219" cy="-1.897" r="5.451" gradientTransform="translate(-0.729) scale(2.458 1)" xlink:href="#radial-gradient"/>
    <radialGradient id="radial-gradient-42" cx="-9.189" cy="-6.036" r="10.737" gradientTransform="translate(-0.078) scale(1.156 1)" xlink:href="#radial-gradient"/>
  </defs>
  <g id="logo" transform="translate(-15.577 -119.723)">
    <g id="Сгруппировать_1" data-name="Сгруппировать 1" transform="translate(15.577 119.723)">
      <path id="Контур_1" data-name="Контур 1" d="M34.312,128.3a19.2,19.2,0,0,1,.323,4.17l-.091,1.339a2.174,2.174,0,0,1-.652,1.2c-.147.106-.213-.079-.206-.565a18.828,18.828,0,0,0-.278-4.123,1.708,1.708,0,0,1,.1-1.135,1.854,1.854,0,0,0,.659-1.615l.151.733" transform="translate(4.437 -110.896)" fill="url(#radial-gradient)"/>
      <path id="Контур_2" data-name="Контур 2" d="M28.124,136.967c.306-.062.621-.132.948-.208C28.313,136.938,28.092,136.982,28.124,136.967Z" transform="translate(-1.463 -100.554)" fill="url(#radial-gradient-2)"/>
      <path id="Контур_3" data-name="Контур 3" d="M30.091,131.217h0C30.079,131.221,30.072,131.221,30.091,131.217Z" transform="translate(0.741 -106.79)" fill="url(#radial-gradient-3)"/>
      <path id="Контур_4" data-name="Контур 4" d="M19.087,125.966c-.366.391-.6.559-.723.533a.789.789,0,0,1-.264-1.154,5.388,5.388,0,0,1,.676-.714,17.272,17.272,0,0,1,3.13-2.321,3.685,3.685,0,0,1,.655-.315.456.456,0,0,0,.153.657c-.023.07-.047.134-.6.55a20.2,20.2,0,0,0-3.028,2.763" transform="translate(-12.903 -117.166)" fill="url(#radial-gradient-4)"/>
      <path id="Контур_5" data-name="Контур 5" d="M17.247,129.924c-.2.478-.376.691-.531.642a1.107,1.107,0,0,1-.5-1.388c.238-.559.555-1.3.82-1.851a19.111,19.111,0,0,1,1.628-2.652l.1-.142a4.5,4.5,0,0,1,.315-.4.9.9,0,0,0,.291,1.3c.079.117-.011.38-.278.827a20.645,20.645,0,0,0-1.845,3.66" transform="translate(-14.957 -114.759)" fill="url(#radial-gradient-5)"/>
      <path id="Контур_6" data-name="Контур 6" d="M16.521,133.758c-.011.516-.094.748-.251.691A1.391,1.391,0,0,1,15.6,133.4l-.021-.616a18.016,18.016,0,0,1,.2-3.137c.132-.706.319-1.643.5-2.336a1.17,1.17,0,0,0,.57,1.326c.134.153.155.478.068.992a19.7,19.7,0,0,0-.391,4.131" transform="translate(-15.577 -111.189)" fill="url(#radial-gradient-6)"/>
      <path id="Контур_7" data-name="Контур 7" d="M18.021,137c.13.3.189.48.157.589l-.07-.008a1.712,1.712,0,0,1-.533-.58c-.276-.6-.646-1.4-.888-2.015a18.977,18.977,0,0,1-.89-3.2l-.123-.74a1.457,1.457,0,0,0,.667.954,2.241,2.241,0,0,1,.434,1.05A18.35,18.35,0,0,0,18.021,137" transform="translate(-15.469 -106.987)" fill="url(#radial-gradient-7)"/>
      <path id="Контур_8" data-name="Контур 8" d="M20.724,138.8a5.194,5.194,0,0,1,.412.4l-.032-.015c-.034-.026-.066-.049-.1-.074l-.561-.478a18.459,18.459,0,0,1-2.142-2.229c-.406-.538-.944-1.258-1.316-1.817a1.719,1.719,0,0,0,.459.463,4.724,4.724,0,0,1,.712.844,17.058,17.058,0,0,0,2.563,2.912" transform="translate(-13.987 -103.007)" fill="url(#radial-gradient-8)"/>
      <path id="Контур_9" data-name="Контур 9" d="M20.762,137.961l-.735-.444-.453-.293c.321.215.623.4.784.5.134.081.268.162.4.238" transform="translate(-11.079 -100.031)" fill="url(#radial-gradient-9)"/>
      <path id="Контур_10" data-name="Контур 10" d="M22.4,126.145c-.227.423-.472.638-.765.674a13.21,13.21,0,0,1-2.576-.274c-.2-.047-.389-.1-.555-.155-.125-.1-.032-.34.293-.742a20.05,20.05,0,0,1,2.939-2.805c.527-.389.733-.448.812-.448a2.9,2.9,0,0,0,.31.087,7.328,7.328,0,0,0,1.443.155c.079.021.147.1-.153.54a18.32,18.32,0,0,0-1.749,2.969" transform="translate(-12.344 -116.718)" fill="url(#radial-gradient-10)"/>
      <path id="Контур_11" data-name="Контур 11" d="M22.21,129.958c-.128.506-.383.774-.784.816a18.8,18.8,0,0,1-3.672-.393,7.685,7.685,0,0,1-.791-.221c-.2-.128-.225-.431-.066-.933a21.172,21.172,0,0,1,1.781-3.691c.283-.427.519-.627.723-.61a6.293,6.293,0,0,0,.616.172,14.6,14.6,0,0,0,2.867.306c.287.051.37.3.257.746a27.7,27.7,0,0,0-.931,3.808" transform="translate(-14.21 -113.871)" fill="url(#radial-gradient-11)"/>
      <path id="Контур_12" data-name="Контур 12" d="M22.474,133.877c-.006.538-.225.82-.672.863a21.472,21.472,0,0,1-4.225-.451c-.334-.077-.635-.162-.907-.253-.255-.142-.4-.476-.429-1.02a20.281,20.281,0,0,1,.361-4.146c.123-.506.3-.729.542-.7a8.214,8.214,0,0,0,.827.234,20,20,0,0,0,3.853.41c.406.062.61.342.621.861a31.183,31.183,0,0,0,.03,4.2" transform="translate(-14.834 -110.221)" fill="url(#radial-gradient-12)"/>
      <path id="Контур_13" data-name="Контур 13" d="M23.826,137.269c.119.455-.028.693-.448.729a20.934,20.934,0,0,1-4.1-.436,8.958,8.958,0,0,1-.88-.249,1.792,1.792,0,0,1-.737-.893,18.664,18.664,0,0,1-1.237-3.947c-.081-.527,0-.754.249-.718a8.991,8.991,0,0,0,.916.255,21.752,21.752,0,0,0,4.257.455,1.068,1.068,0,0,1,.91.882,26.494,26.494,0,0,0,1.067,3.921" transform="translate(-14.653 -106.188)" fill="url(#radial-gradient-13)"/>
      <path id="Контур_14" data-name="Контур 14" d="M25.486,139.172c.215.306.162.459-.172.482a17.057,17.057,0,0,1-3.328-.357,7.088,7.088,0,0,1-.716-.2,3.63,3.63,0,0,1-.9-.631,16.88,16.88,0,0,1-2.512-2.886c-.346-.542-.191-.567-.068-.533a8.778,8.778,0,0,0,.852.238,20.294,20.294,0,0,0,3.974.425,1.358,1.358,0,0,1,1.039.669,16.967,16.967,0,0,0,1.832,2.793" transform="translate(-13.251 -102.491)" fill="url(#radial-gradient-14)"/>
      <path id="Контур_15" data-name="Контур 15" d="M27.032,139.731a.739.739,0,0,1,.244.14l-.006.036a.535.535,0,0,1-.1.013A10.621,10.621,0,0,1,25.1,139.7c-.057-.013-.113-.028-.166-.04a18.641,18.641,0,0,1-2.421-.833,16.115,16.115,0,0,1-2.2-1.128,2.572,2.572,0,0,1-.419-.3l.057-.015a6.341,6.341,0,0,0,.663.185,15.615,15.615,0,0,0,3.082.329,1.931,1.931,0,0,1,1,.4,9.438,9.438,0,0,0,2.331,1.428" transform="translate(-10.713 -99.847)" fill="url(#radial-gradient-15)"/>
      <path id="Контур_16" data-name="Контур 16" d="M26.128,138.9l-.54-.011c-.88-.047-.952-.049-1.5-.111l-.873-.117a10.609,10.609,0,0,0,1.313.106c.185.008.283.019.827.083a7.2,7.2,0,0,0,.771.049" transform="translate(-6.981 -98.416)" fill="url(#radial-gradient-16)"/>
      <path id="Контур_17" data-name="Контур 17" d="M25.979,125.616a.664.664,0,0,1-.5.74,41,41,0,0,1-4.62.463c-.291-.032-.363-.249-.221-.665a18.453,18.453,0,0,1,1.545-2.967,1.215,1.215,0,0,1,.64-.544,22.372,22.372,0,0,0,2.591-.261c.07,0,.287,0,.344.446.049.825.123,1.762.223,2.788" transform="translate(-9.964 -116.733)" fill="url(#radial-gradient-17)"/>
      <path id="Контур_18" data-name="Контур 18" d="M27.65,129.188a.834.834,0,0,1-.695.931,58.1,58.1,0,0,1-6.588.663c-.427-.036-.623-.3-.6-.8a29.547,29.547,0,0,1,.784-3.806,1,1,0,0,1,.763-.757,44.825,44.825,0,0,0,5.141-.516.652.652,0,0,1,.714.608c.138,1.16.3,2.4.476,3.681" transform="translate(-10.86 -113.9)" fill="url(#radial-gradient-18)"/>
      <path id="Контур_19" data-name="Контур 19" d="M28.985,132.975a.9.9,0,0,1-.78,1.018,67.13,67.13,0,0,1-7.574.761.906.906,0,0,1-.89-.85,34.364,34.364,0,0,1-.1-4.2.88.88,0,0,1,.778-.873,61.611,61.611,0,0,0,6.909-.695.852.852,0,0,1,.975.7c.21,1.354.438,2.742.68,4.142" transform="translate(-11.031 -110.259)" fill="url(#radial-gradient-19)"/>
      <path id="Контур_20" data-name="Контур 20" d="M30.079,136.385c.04.47-.2.763-.742.895a64.859,64.859,0,0,1-7.347.737,1.135,1.135,0,0,1-1.048-.714,29.138,29.138,0,0,1-1.037-3.923.711.711,0,0,1,.657-.895,67.883,67.883,0,0,0,7.636-.767.954.954,0,0,1,1.1.718c.264,1.4.525,2.718.782,3.949" transform="translate(-10.714 -106.23)" fill="url(#radial-gradient-20)"/>
      <path id="Контур_21" data-name="Контур 21" d="M30.28,138.439c.038.325-.157.533-.6.633a52.991,52.991,0,0,1-5.972.6,1.389,1.389,0,0,1-1.026-.472,17.588,17.588,0,0,1-1.717-2.795c-.151-.4-.006-.623.444-.682a62.733,62.733,0,0,0,7.126-.716c.544-.04.88.136,1.029.536.247,1.069.485,2.038.712,2.895" transform="translate(-9.574 -102.53)" fill="url(#radial-gradient-21)"/>
      <path id="Контур_22" data-name="Контур 22" d="M29.652,139.267c.034.151-.079.247-.351.3a33.36,33.36,0,0,1-3.711.372,2.278,2.278,0,0,1-.856-.181,8.689,8.689,0,0,1-2.149-1.432c-.227-.238-.172-.372.168-.41a48.622,48.622,0,0,0,5.528-.557c.423-.036.686.066.808.315.2.659.393,1.192.563,1.59" transform="translate(-7.845 -99.883)" fill="url(#radial-gradient-22)"/>
      <path id="Контур_23" data-name="Контур 23" d="M28.18,138.754l-.23.036c-.442.064-.51.074-.729.1-.527.055-.527.055-.8.077-.6.038-.6.038-.92.047l-.094,0a5.984,5.984,0,0,1-.873-.047.787.787,0,0,1-.242-.057l0-.021a.707.707,0,0,1,.094-.013,27.418,27.418,0,0,0,3.1-.312.667.667,0,0,1,.468.06c.081.1.155.142.221.132" transform="translate(-5.767 -98.537)" fill="url(#radial-gradient-23)"/>
      <path id="Контур_24" data-name="Контур 24" d="M29.468,124.168c.255.346.234.582-.064.723a43.971,43.971,0,0,1-4.765,1.207.605.605,0,0,1-.682-.529c-.176-1.014-.334-1.936-.47-2.746-.03-.3.049-.482.238-.548A24.408,24.408,0,0,0,26.4,121.6a1.091,1.091,0,0,1,.778.289,18.863,18.863,0,0,1,2.293,2.283" transform="translate(-6.683 -117.623)" fill="url(#radial-gradient-24)"/>
      <path id="Контур_25" data-name="Контур 25" d="M32.466,127.853a.668.668,0,0,1-.372.982,61.678,61.678,0,0,1-6.8,1.724.808.808,0,0,1-.958-.642c-.23-1.275-.448-2.5-.652-3.649a.7.7,0,0,1,.512-.822,48.186,48.186,0,0,0,5.3-1.345.99.99,0,0,1,1.014.436,32.921,32.921,0,0,1,1.953,3.317" transform="translate(-6.457 -114.821)" fill="url(#radial-gradient-25)"/>
      <path id="Контур_26" data-name="Контур 26" d="M34.565,131.569a.939.939,0,0,1-.625,1.128,71.75,71.75,0,0,1-7.812,1.981.916.916,0,0,1-1.1-.689c-.257-1.4-.512-2.78-.759-4.127a.872.872,0,0,1,.7-.992,65.51,65.51,0,0,0,7.126-1.806.917.917,0,0,1,1.105.529,39.225,39.225,0,0,1,1.36,3.976" transform="translate(-5.798 -111.498)" fill="url(#radial-gradient-26)"/>
      <path id="Контур_27" data-name="Контур 27" d="M35.1,135.138a1.141,1.141,0,0,1-.793,1.052,69.893,69.893,0,0,1-7.579,1.921.855.855,0,0,1-1.05-.58c-.236-1.233-.485-2.557-.748-3.955a.934.934,0,0,1,.78-1.048,72.423,72.423,0,0,0,7.876-2,.77.77,0,0,1,1.029.587,32.442,32.442,0,0,1,.485,4.021" transform="translate(-5.052 -107.6)" fill="url(#radial-gradient-27)"/>
      <path id="Контур_28" data-name="Контур 28" d="M33.949,137.544a1.321,1.321,0,0,1-.829.808,56.233,56.233,0,0,1-6.159,1.562c-.457.057-.731-.068-.842-.38-.172-.865-.366-1.843-.574-2.92-.026-.421.219-.7.748-.846a67.539,67.539,0,0,0,7.349-1.864c.5-.113.746.036.769.459a18.76,18.76,0,0,1-.463,3.181" transform="translate(-4.362 -103.808)" fill="url(#radial-gradient-28)"/>
      <path id="Контур_29" data-name="Контур 29" d="M31.413,138.853a1.938,1.938,0,0,1-.733.468,34.585,34.585,0,0,1-3.825.971c-.287.04-.448-.006-.512-.151-.091-.412-.208-.958-.346-1.63-.011-.268.183-.451.6-.559a52.319,52.319,0,0,0,5.7-1.445c.376-.091.51.006.41.3a8,8,0,0,1-1.288,2.044" transform="translate(-3.854 -100.875)" fill="url(#radial-gradient-29)"/>
      <path id="Контур_30" data-name="Контур 30" d="M28.986,138.555l-.21.07c-.57.179-.57.179-.85.255-.487.13-.525.14-.754.191-.431.1-.51.115-.708.151l-.162.032c-.011,0-.03-.053-.06-.162,0-.079.123-.147.349-.2a29.4,29.4,0,0,0,3.2-.812.323.323,0,0,1,.138-.021c-.006.04-.006.049-.155.138a4.831,4.831,0,0,1-.784.357" transform="translate(-3.577 -99.092)" fill="url(#radial-gradient-30)"/>
      <path id="Контур_31" data-name="Контур 31" d="M31.8,122.47c.427.264.591.465.489.6a14.279,14.279,0,0,1-2.992,1.492,1.056,1.056,0,0,1-.965-.363,18.222,18.222,0,0,0-2.506-2.208c-.4-.312-.346-.417-.27-.465a8.02,8.02,0,0,0,1.677-.837,1.846,1.846,0,0,1,.914.147A19.866,19.866,0,0,1,31.8,122.47" transform="translate(-4.406 -118.658)" fill="url(#radial-gradient-31)"/>
      <path id="Контур_32" data-name="Контур 32" d="M35.016,125.723c.319.417.389.712.213.9a20.128,20.128,0,0,1-4.265,2.127.929.929,0,0,1-1.06-.482A30.093,30.093,0,0,0,27.8,125c-.247-.385-.232-.648.049-.8a15.752,15.752,0,0,0,3.328-1.66c.206-.085.506.021.916.327a21.707,21.707,0,0,1,2.924,2.856" transform="translate(-2.02 -116.587)" fill="url(#radial-gradient-32)"/>
      <path id="Контур_33" data-name="Контур 33" d="M36.669,129.586c.159.521.13.88-.091,1.1a23.291,23.291,0,0,1-4.905,2.446.775.775,0,0,1-1-.561,34.052,34.052,0,0,0-1.43-3.951.761.761,0,0,1,.351-1.039,21.129,21.129,0,0,0,4.474-2.229c.247-.111.508.042.8.47a21.142,21.142,0,0,1,1.8,3.764" transform="translate(-0.281 -113.428)" fill="url(#radial-gradient-33)"/>
      <path id="Контур_34" data-name="Контур 34" d="M36.525,133.393a1.6,1.6,0,0,1-.41,1.088,22.529,22.529,0,0,1-4.758,2.372c-.446.121-.695-.045-.761-.51a29.022,29.022,0,0,0-.455-4.032,1.065,1.065,0,0,1,.6-1.154,23.474,23.474,0,0,0,4.945-2.465c.251-.119.429.074.548.587a19.059,19.059,0,0,1,.291,4.114" transform="translate(0.802 -109.669)" fill="url(#radial-gradient-34)"/>
      <path id="Контур_35" data-name="Контур 35" d="M34.862,136.466a2.867,2.867,0,0,1-.642.9,18.258,18.258,0,0,1-3.866,1.928c-.349.1-.485-.021-.419-.372a17.321,17.321,0,0,0,.584-3.226,1.321,1.321,0,0,1,.771-1,21.754,21.754,0,0,0,4.616-2.3c.215-.111.276.06.191.521a16.54,16.54,0,0,1-1.237,3.549" transform="translate(0.561 -105.5)" fill="url(#radial-gradient-35)"/>
      <path id="Контур_36" data-name="Контур 36" d="M32.087,138.37l-.17.136-.55.421-.053.04a11.347,11.347,0,0,1-2.4,1.2c-.1.034-.1.034-.151,0,.013-.064.034-.091.138-.206a8.783,8.783,0,0,0,1.477-2.11,1.743,1.743,0,0,1,.8-.727,16.842,16.842,0,0,0,3.579-1.783l.049-.03.034.021a1.352,1.352,0,0,1-.249.419,15.081,15.081,0,0,1-2.5,2.622" transform="translate(-0.744 -102.187)" fill="url(#radial-gradient-36)"/>
      <path id="Контур_37" data-name="Контур 37" d="M27.784,138.939a5.674,5.674,0,0,0,.661-.31,6.973,6.973,0,0,1,.725-.361,11.628,11.628,0,0,0,1.562-.72,20.316,20.316,0,0,1-2.948,1.392" transform="translate(-1.841 -99.667)" fill="url(#radial-gradient-37)"/>
      <path id="Контур_38" data-name="Контур 38" d="M31.773,120.4a3.227,3.227,0,0,1,.9.353c.3.325.24.759-.138,1.264-.128.087-.419.038-.918-.153a19.892,19.892,0,0,0-3.885-1.152,2.035,2.035,0,0,1-.742-.217c.21-.3.242-.548.077-.731.038-.019.115-.062.771-.032a18.213,18.213,0,0,1,3.938.667" transform="translate(-2.738 -119.723)" fill="url(#radial-gradient-38)"/>
      <path id="Контур_39" data-name="Контур 39" d="M34.037,123.516l.461.372c.236.2.31.264.385.338.427.459.357,1.08-.172,1.806-.155.121-.425.015-.829-.319a21.2,21.2,0,0,0-3.3-2.421c-.436-.278-.616-.474-.574-.618.414-.57.468-1.054.136-1.411.066-.015.1-.023.608.215a17.684,17.684,0,0,1,3.29,2.038" transform="translate(0.649 -117.997)" fill="url(#radial-gradient-39)"/>
      <path id="Контур_40" data-name="Контур 40" d="M34.017,125.806a18.136,18.136,0,0,1,1.551,2.733l.251.563a1.753,1.753,0,0,1-.485,1.749c-.162.123-.357-.042-.6-.508a20.508,20.508,0,0,0-2.132-3.579c-.3-.431-.393-.74-.3-.937.587-.742.686-1.388.259-1.887l-.008-.011c.448.55,1.06,1.284,1.458,1.877" transform="translate(3.211 -114.991)" fill="url(#radial-gradient-40)"/>
      <path id="Контур_41" data-name="Контур 41" d="M33.993,134.449a18.745,18.745,0,0,1-1.258,2.705,2.646,2.646,0,0,1-.363.48l-.032.028-.017-.028a2.517,2.517,0,0,1,.2-.478,16.774,16.774,0,0,0,1.286-3.589,3.051,3.051,0,0,1,.419-1.039,2.255,2.255,0,0,0,.616-1.05,18.493,18.493,0,0,1-.846,2.971" transform="translate(3.266 -106.496)" fill="url(#radial-gradient-41)"/>
      <path id="Контур_42" data-name="Контур 42" d="M32.646,136.016a18.82,18.82,0,0,1-1.86,1.993,16,16,0,0,0,1.834-2.034c.349-.457.523-.678.648-.818a2.95,2.95,0,0,0,.234-.287c-.257.342-.582.816-.856,1.146" transform="translate(1.536 -102.678)" fill="url(#radial-gradient-42)"/>
    </g>
    <path id="Контур_43" data-name="Контур 43" d="M49.085,148.284a14.265,14.265,0,0,1-4.425.729,7.561,7.561,0,0,1-5.617-2.091,6.634,6.634,0,0,1-1.775-4.814,10.488,10.488,0,0,1,4.108-8.318,11.125,11.125,0,0,1,7.1-2.187,11.988,11.988,0,0,1,3.891.582L51.64,135.1a8.038,8.038,0,0,0-3.258-.631,6.935,6.935,0,0,0-5.326,2.115,7.584,7.584,0,0,0-2.14,5.228,4.109,4.109,0,0,0,1.411,3.356,5.129,5.129,0,0,0,3.33.973,9.531,9.531,0,0,0,3.817-.754Z" transform="translate(24.408 13.367)" fill="#005172"/>
    <path id="Контур_44" data-name="Контур 44" d="M47.28,134.512A16.107,16.107,0,0,1,49.4,133.9a11.773,11.773,0,0,1,2.431-.219c1.169,0,3.041.147,4.087,1.241a3.782,3.782,0,0,1,.9,2.455,5.549,5.549,0,0,1-.147,1.143l-1.628,7.953H51.8l.363-1.849h-.049a5.23,5.23,0,0,1-1.8,1.507,5.135,5.135,0,0,1-2.408.536,4.8,4.8,0,0,1-2.65-.68A2.979,2.979,0,0,1,44,143.436a4.2,4.2,0,0,1,1.653-3.33,7,7,0,0,1,3.866-1.339c.512-.049,1.071-.072,1.63-.072H53.31l.123-.536a1.445,1.445,0,0,0-.389-1.507A3.229,3.229,0,0,0,50.806,136a7.1,7.1,0,0,0-1.921.268,12.9,12.9,0,0,0-2.14.85Zm4.765,6.25a8.307,8.307,0,0,0-3.209.412,1.983,1.983,0,0,0-1.386,1.97,1.121,1.121,0,0,0,.412.948,1.841,1.841,0,0,0,1.192.342,3.568,3.568,0,0,0,2.674-1.046,4.533,4.533,0,0,0,1.1-2.312l.072-.315Z" transform="translate(31.979 15.71)" fill="#005172"/>
    <path id="Контур_45" data-name="Контур 45" d="M56.248,133.888l-.536,2.722h.072c.706-1.726,2.31-3.088,3.917-2.918a5.779,5.779,0,0,1,1.118.147l-.608,2.406c-.219-.023-.633-.072-.827-.072a3.651,3.651,0,0,0-2.869,1.29,6.131,6.131,0,0,0-1.29,2.967l-1.239,6.055H50.68l2.552-12.6Z" transform="translate(39.499 15.703)" fill="#005172"/>
    <path id="Контур_46" data-name="Контур 46" d="M69.819,131.122,66.1,149.361H63.206l.438-2.189h-.049a6,6,0,0,1-1.8,1.677,5.341,5.341,0,0,1-2.674.706,4.023,4.023,0,0,1-2.725-.948,5.4,5.4,0,0,1-1.483-3.915,9.271,9.271,0,0,1,2.068-5.838,6.236,6.236,0,0,1,4.767-2.285,3.6,3.6,0,0,1,3.281,1.9h.049l.34-2.068,1.094-5.277ZM64.2,141.846a3.142,3.142,0,0,0-.485-1.8,1.921,1.921,0,0,0-1.656-.85,3.023,3.023,0,0,0-2.529,1.434,6.172,6.172,0,0,0-1.167,3.647,2.948,2.948,0,0,0,.561,1.947,1.8,1.8,0,0,0,1.556.7,3.187,3.187,0,0,0,2.527-1.435,5.822,5.822,0,0,0,1.071-2.431A6.716,6.716,0,0,0,64.2,141.846Z" transform="translate(44.262 12.826)" fill="#005172"/>
    <path id="Контур_47" data-name="Контур 47" d="M62.43,145.2a10.445,10.445,0,0,0,4.012,1.02,3.677,3.677,0,0,0,2.433-.8,2.122,2.122,0,0,0,.752-1.653,1.958,1.958,0,0,0-.559-1.339,6.391,6.391,0,0,0-1.726-1.095l-.9-.485a6.6,6.6,0,0,1-2.163-1.874,3.141,3.141,0,0,1-.487-1.87,4.993,4.993,0,0,1,2.117-4.159A7.733,7.733,0,0,1,70.6,131.6a12.317,12.317,0,0,1,4.231.729l-.924,2.722a9.205,9.205,0,0,0-3.551-.827,3.2,3.2,0,0,0-2.163.608,2.174,2.174,0,0,0-.827,1.679,1.559,1.559,0,0,0,.536,1.167,7.933,7.933,0,0,0,1.945,1.265l.706.366a6.136,6.136,0,0,1,2.091,1.7,4.408,4.408,0,0,1,.633,2.359,5.134,5.134,0,0,1-1.411,3.451c-.9,1.046-2.578,2.189-5.908,2.189a13.339,13.339,0,0,1-4.5-.85Z" transform="translate(51.627 13.367)" fill="#333"/>
    <path id="Контур_48" data-name="Контур 48" d="M71.484,141.174a3.759,3.759,0,0,0-.1.706,2.2,2.2,0,0,0,.85,1.775,4.072,4.072,0,0,0,2.382.633,8.9,8.9,0,0,0,2.14-.268,15.282,15.282,0,0,0,1.97-.608l-.51,2.48a13.086,13.086,0,0,1-4.329.778,6.822,6.822,0,0,1-4.352-1.337,5.091,5.091,0,0,1-1.581-3.915,7.587,7.587,0,0,1,2.115-5.375,7.775,7.775,0,0,1,5.594-2.359,4.636,4.636,0,0,1,3.7,1.532,4.8,4.8,0,0,1,1.118,3.235,9.6,9.6,0,0,1-.244,1.97l-.17.752Zm5.642-2.261a3.905,3.905,0,0,0,.072-.8,2.388,2.388,0,0,0-.412-1.46,2,2,0,0,0-1.656-.682,2.907,2.907,0,0,0-2.089.95,4.278,4.278,0,0,0-1.1,1.993Z" transform="translate(58.94 15.71)" fill="#333"/>
    <path id="Контур_49" data-name="Контур 49" d="M79.865,133.888l-.533,2.722H79.4c.706-1.726,2.31-3.088,3.915-2.918a5.779,5.779,0,0,1,1.12.147l-.61,2.406c-.217-.023-.631-.072-.827-.072a3.657,3.657,0,0,0-2.869,1.29,6.128,6.128,0,0,0-1.288,2.967l-1.239,6.055H74.3l2.555-12.6Z" transform="translate(66.073 15.703)" fill="#333"/>
    <path id="Контур_50" data-name="Контур 50" d="M82.763,133.777l1.071,7.78.145,1.849h.074l.827-1.849,4.134-7.78h3.526l-7.2,12.6H81.452l-2.166-12.6Z" transform="translate(71.687 15.814)" fill="#333"/>
    <path id="Контур_51" data-name="Контур 51" d="M91.061,133.777l-2.552,12.6H85.2l2.552-12.6Z" transform="translate(78.344 15.814)" fill="#333"/>
    <path id="Контур_52" data-name="Контур 52" d="M98.775,136.41a4.441,4.441,0,0,0-1.656-.342,4.968,4.968,0,0,0-3.67,1.437,5.647,5.647,0,0,0-1.532,3.817,2.769,2.769,0,0,0,2.99,2.967,7.818,7.818,0,0,0,2.652-.51l-.391,2.406a9.864,9.864,0,0,1-3.016.487,5.684,5.684,0,0,1-4.376-1.628,5.224,5.224,0,0,1-1.313-3.747,7.313,7.313,0,0,1,2.261-5.326,8.5,8.5,0,0,1,6.031-2.285,11.6,11.6,0,0,1,2.7.34Z" transform="translate(82.013 15.71)" fill="#333"/>
    <path id="Контур_53" data-name="Контур 53" d="M96.967,141.174a3.77,3.77,0,0,0-.1.706,2.2,2.2,0,0,0,.852,1.775,4.072,4.072,0,0,0,2.382.633,8.9,8.9,0,0,0,2.14-.268,15.282,15.282,0,0,0,1.97-.608l-.512,2.48a13.084,13.084,0,0,1-4.327.778,6.828,6.828,0,0,1-4.355-1.337,5.1,5.1,0,0,1-1.579-3.915,7.587,7.587,0,0,1,2.115-5.375,7.771,7.771,0,0,1,5.594-2.359,4.624,4.624,0,0,1,3.7,1.532,4.8,4.8,0,0,1,1.118,3.235,9.755,9.755,0,0,1-.242,1.97l-.17.752Zm5.642-2.261a4.059,4.059,0,0,0,.072-.8,2.376,2.376,0,0,0-.414-1.46,1.992,1.992,0,0,0-1.653-.682,2.912,2.912,0,0,0-2.091.95,4.3,4.3,0,0,0-1.094,1.993Z" transform="translate(87.614 15.71)" fill="#333"/>
    <path id="Контур_54" data-name="Контур 54" d="M92.577,132.567a.2.2,0,0,1,0,.287l-3.783,3.783a.2.2,0,0,1-.287,0l-2.346-2.346a.2.2,0,0,1,0-.287l3.783-3.783a.2.2,0,0,1,.287,0Z" transform="translate(79.357 11.746)" fill="#005172"/>
  </g>
</svg>
