<svg xmlns="http://www.w3.org/2000/svg" width="24" height="24" viewBox="0 0 24 24">
  <path id="user" d="M702.982,850A5.018,5.018,0,1,1,708,855,5.009,5.009,0,0,1,702.982,850ZM708,847a3,3,0,1,0,3.018,3A3.009,3.009,0,0,0,708,847Zm-12,5a12,12,0,1,1,4.4,9.283A12,12,0,0,1,696,852Zm17.863,8.1A3,3,0,0,0,711,858h-6a3,3,0,0,0-2.863,2.1,10,10,0,0,0,11.726,0ZM708,842a10,10,0,0,0-7.434,16.688A5,5,0,0,1,705,856h6a5,5,0,0,1,4.434,2.688A10,10,0,0,0,708,842Z" transform="translate(-696 -840)" fill="#84c70e" fill-rule="evenodd"/>
</svg>
